<svg xmlns="http://www.w3.org/2000/svg" viewBox="0 0 64 64"><rect x="2" y="2" width="60" height="60" fill="#0c1216"/><rect x="4" y="4" width="56" height="56" fill="#2f4143"/><rect x="6" y="6" width="52" height="52" fill="#14232a"/><rect x="11" y="12" width="13" height="3" fill="#73d0a3"/><rect x="11" y="12" width="3" height="12" fill="#73d0a3"/><rect x="40" y="49" width="13" height="3" fill="#73d0a3"/><rect x="50" y="40" width="3" height="12" fill="#73d0a3"/><rect x="17" y="25" width="8" height="27" fill="#82928b"/><rect x="39" y="25" width="8" height="27" fill="#82928b"/><rect x="25" y="26" width="14" height="25" fill="#bd813b"/><rect x="25" y="25" width="14" height="21" fill="#f1bd53"/><rect x="28" y="24" width="8" height="14" fill="#ffe3a0"/><rect x="29" y="11" width="6" height="18" fill="#f1bd53"/><rect x="29" y="10" width="6" height="4" fill="#ffe3a0"/><rect x="28" y="40" width="8" height="5" fill="#e1a643"/><rect x="17" y="28" width="8" height="2" fill="#344847"/><rect x="39" y="28" width="8" height="2" fill="#344847"/><rect x="17" y="34" width="8" height="2" fill="#344847"/><rect x="39" y="34" width="8" height="2" fill="#344847"/><rect x="17" y="40" width="8" height="2" fill="#344847"/><rect x="39" y="40" width="8" height="2" fill="#344847"/><rect x="17" y="46" width="8" height="2" fill="#344847"/><rect x="39" y="46" width="8" height="2" fill="#344847"/></svg>